<mxfile host="app.diagrams.net" agent="Mozilla/5.0 (Windows NT 10.0; Win64; x64) AppleWebKit/537.36 (KHTML, like Gecko) Chrome/137.0.0.0 Safari/537.36 OPR/121.0.0.0" version="28.2.5">
  <diagram name="Page-1" id="g2Z5ddD69LAPwM11FIuM">
    <mxGraphModel dx="1586" dy="790" grid="1" gridSize="10" guides="1" tooltips="1" connect="1" arrows="1" fold="1" page="1" pageScale="1" pageWidth="827" pageHeight="1169" math="0" shadow="0">
      <root>
        <mxCell id="0" />
        <mxCell id="1" parent="0" />
        <mxCell id="gkZLn7RkhI8wQoTyjbAU-3" value="orarend" style="ellipse;whiteSpace=wrap;html=1;" vertex="1" parent="1">
          <mxGeometry x="200" y="160" width="120" height="80" as="geometry" />
        </mxCell>
        <mxCell id="gkZLn7RkhI8wQoTyjbAU-8" value="id" style="rhombus;whiteSpace=wrap;html=1;" vertex="1" parent="1">
          <mxGeometry x="-80" y="440" width="160" height="80" as="geometry" />
        </mxCell>
        <mxCell id="gkZLn7RkhI8wQoTyjbAU-10" value="tipus" style="rhombus;whiteSpace=wrap;html=1;" vertex="1" parent="1">
          <mxGeometry x="430" y="440" width="160" height="80" as="geometry" />
        </mxCell>
        <mxCell id="gkZLn7RkhI8wQoTyjbAU-11" value="" style="endArrow=none;html=1;rounded=0;fontSize=12;startSize=8;endSize=8;curved=1;exitX=0.5;exitY=0;exitDx=0;exitDy=0;" edge="1" parent="1" source="gkZLn7RkhI8wQoTyjbAU-8" target="gkZLn7RkhI8wQoTyjbAU-32">
          <mxGeometry width="50" height="50" relative="1" as="geometry">
            <mxPoint x="210" y="430" as="sourcePoint" />
            <mxPoint x="208.55042445724735" y="420.57983021710106" as="targetPoint" />
          </mxGeometry>
        </mxCell>
        <mxCell id="gkZLn7RkhI8wQoTyjbAU-12" value="" style="endArrow=none;html=1;rounded=0;fontSize=12;startSize=8;endSize=8;curved=1;exitX=0.5;exitY=0;exitDx=0;exitDy=0;" edge="1" parent="1" source="gkZLn7RkhI8wQoTyjbAU-10" target="gkZLn7RkhI8wQoTyjbAU-32">
          <mxGeometry width="50" height="50" relative="1" as="geometry">
            <mxPoint x="310" y="500" as="sourcePoint" />
            <mxPoint x="311.44957554275265" y="420.57983021710106" as="targetPoint" />
          </mxGeometry>
        </mxCell>
        <mxCell id="gkZLn7RkhI8wQoTyjbAU-13" value="helyszin" style="ellipse;whiteSpace=wrap;html=1;" vertex="1" parent="1">
          <mxGeometry x="200" y="600" width="120" height="80" as="geometry" />
        </mxCell>
        <mxCell id="gkZLn7RkhI8wQoTyjbAU-14" value="idopont" style="ellipse;whiteSpace=wrap;html=1;" vertex="1" parent="1">
          <mxGeometry x="40" y="600" width="120" height="80" as="geometry" />
        </mxCell>
        <mxCell id="gkZLn7RkhI8wQoTyjbAU-15" value="oktato" style="ellipse;whiteSpace=wrap;html=1;" vertex="1" parent="1">
          <mxGeometry x="360" y="600" width="120" height="80" as="geometry" />
        </mxCell>
        <mxCell id="gkZLn7RkhI8wQoTyjbAU-16" value="targy" style="ellipse;whiteSpace=wrap;html=1;" vertex="1" parent="1">
          <mxGeometry x="-120" y="600" width="120" height="80" as="geometry" />
        </mxCell>
        <mxCell id="gkZLn7RkhI8wQoTyjbAU-17" value="szak" style="ellipse;whiteSpace=wrap;html=1;" vertex="1" parent="1">
          <mxGeometry x="520" y="600" width="120" height="80" as="geometry" />
        </mxCell>
        <mxCell id="gkZLn7RkhI8wQoTyjbAU-20" value="" style="endArrow=none;html=1;rounded=0;fontSize=12;startSize=8;endSize=8;curved=1;" edge="1" parent="1" source="gkZLn7RkhI8wQoTyjbAU-16" target="gkZLn7RkhI8wQoTyjbAU-32">
          <mxGeometry width="50" height="50" relative="1" as="geometry">
            <mxPoint x="230" y="530" as="sourcePoint" />
            <mxPoint x="220.1381696702049" y="429.8963727473463" as="targetPoint" />
          </mxGeometry>
        </mxCell>
        <mxCell id="gkZLn7RkhI8wQoTyjbAU-24" value="" style="endArrow=none;html=1;rounded=0;fontSize=12;startSize=8;endSize=8;curved=1;" edge="1" parent="1" source="gkZLn7RkhI8wQoTyjbAU-14" target="gkZLn7RkhI8wQoTyjbAU-32">
          <mxGeometry width="50" height="50" relative="1" as="geometry">
            <mxPoint x="230" y="530" as="sourcePoint" />
            <mxPoint x="235.63169203679308" y="436.5524619448106" as="targetPoint" />
          </mxGeometry>
        </mxCell>
        <mxCell id="gkZLn7RkhI8wQoTyjbAU-25" value="" style="endArrow=none;html=1;rounded=0;fontSize=12;startSize=8;endSize=8;curved=1;" edge="1" parent="1" source="gkZLn7RkhI8wQoTyjbAU-13" target="gkZLn7RkhI8wQoTyjbAU-32">
          <mxGeometry width="50" height="50" relative="1" as="geometry">
            <mxPoint x="250" y="650" as="sourcePoint" />
            <mxPoint x="260" y="440" as="targetPoint" />
          </mxGeometry>
        </mxCell>
        <mxCell id="gkZLn7RkhI8wQoTyjbAU-26" value="" style="endArrow=none;html=1;rounded=0;fontSize=12;startSize=8;endSize=8;curved=1;" edge="1" parent="1" source="gkZLn7RkhI8wQoTyjbAU-15" target="gkZLn7RkhI8wQoTyjbAU-32">
          <mxGeometry width="50" height="50" relative="1" as="geometry">
            <mxPoint x="300" y="620" as="sourcePoint" />
            <mxPoint x="284.3683079632069" y="436.5524619448106" as="targetPoint" />
          </mxGeometry>
        </mxCell>
        <mxCell id="gkZLn7RkhI8wQoTyjbAU-27" value="" style="endArrow=none;html=1;rounded=0;fontSize=12;startSize=8;endSize=8;curved=1;" edge="1" parent="1" source="gkZLn7RkhI8wQoTyjbAU-17" target="gkZLn7RkhI8wQoTyjbAU-32">
          <mxGeometry width="50" height="50" relative="1" as="geometry">
            <mxPoint x="270" y="490" as="sourcePoint" />
            <mxPoint x="299.8618303297951" y="429.8963727473463" as="targetPoint" />
          </mxGeometry>
        </mxCell>
        <mxCell id="gkZLn7RkhI8wQoTyjbAU-28" value="" style="whiteSpace=wrap;html=1;aspect=fixed;" vertex="1" parent="1">
          <mxGeometry x="540" y="720" width="80" height="80" as="geometry" />
        </mxCell>
        <mxCell id="gkZLn7RkhI8wQoTyjbAU-29" value="" style="whiteSpace=wrap;html=1;aspect=fixed;" vertex="1" parent="1">
          <mxGeometry x="380" y="720" width="80" height="80" as="geometry" />
        </mxCell>
        <mxCell id="gkZLn7RkhI8wQoTyjbAU-30" value="" style="whiteSpace=wrap;html=1;aspect=fixed;" vertex="1" parent="1">
          <mxGeometry x="220" y="720" width="80" height="80" as="geometry" />
        </mxCell>
        <mxCell id="gkZLn7RkhI8wQoTyjbAU-31" value="" style="whiteSpace=wrap;html=1;aspect=fixed;" vertex="1" parent="1">
          <mxGeometry x="-100" y="720" width="80" height="80" as="geometry" />
        </mxCell>
        <mxCell id="gkZLn7RkhI8wQoTyjbAU-32" value="ora" style="ellipse;shape=doubleEllipse;whiteSpace=wrap;html=1;" vertex="1" parent="1">
          <mxGeometry x="200" y="360" width="120" height="80" as="geometry" />
        </mxCell>
        <mxCell id="gkZLn7RkhI8wQoTyjbAU-33" value="" style="endArrow=none;html=1;rounded=0;fontSize=12;startSize=8;endSize=8;curved=1;" edge="1" parent="1" source="gkZLn7RkhI8wQoTyjbAU-32" target="gkZLn7RkhI8wQoTyjbAU-3">
          <mxGeometry width="50" height="50" relative="1" as="geometry">
            <mxPoint x="230" y="530" as="sourcePoint" />
            <mxPoint x="280" y="480" as="targetPoint" />
          </mxGeometry>
        </mxCell>
        <mxCell id="gkZLn7RkhI8wQoTyjbAU-34" value="tol" style="ellipse;whiteSpace=wrap;html=1;" vertex="1" parent="1">
          <mxGeometry x="40" y="880" width="120" height="80" as="geometry" />
        </mxCell>
        <mxCell id="gkZLn7RkhI8wQoTyjbAU-35" value="nap" style="ellipse;whiteSpace=wrap;html=1;" vertex="1" parent="1">
          <mxGeometry x="-120" y="880" width="120" height="80" as="geometry" />
        </mxCell>
        <mxCell id="gkZLn7RkhI8wQoTyjbAU-36" value="ig" style="ellipse;whiteSpace=wrap;html=1;" vertex="1" parent="1">
          <mxGeometry x="200" y="880" width="120" height="80" as="geometry" />
        </mxCell>
        <mxCell id="gkZLn7RkhI8wQoTyjbAU-39" value="" style="endArrow=none;html=1;rounded=0;fontSize=12;startSize=8;endSize=8;curved=1;" edge="1" parent="1" source="gkZLn7RkhI8wQoTyjbAU-35" target="gkZLn7RkhI8wQoTyjbAU-14">
          <mxGeometry width="50" height="50" relative="1" as="geometry">
            <mxPoint x="230" y="830" as="sourcePoint" />
            <mxPoint x="280" y="780" as="targetPoint" />
          </mxGeometry>
        </mxCell>
        <mxCell id="gkZLn7RkhI8wQoTyjbAU-40" value="" style="endArrow=none;html=1;rounded=0;fontSize=12;startSize=8;endSize=8;curved=1;" edge="1" parent="1" source="gkZLn7RkhI8wQoTyjbAU-34" target="gkZLn7RkhI8wQoTyjbAU-14">
          <mxGeometry width="50" height="50" relative="1" as="geometry">
            <mxPoint x="230" y="830" as="sourcePoint" />
            <mxPoint x="280" y="780" as="targetPoint" />
          </mxGeometry>
        </mxCell>
        <mxCell id="gkZLn7RkhI8wQoTyjbAU-41" value="" style="endArrow=none;html=1;rounded=0;fontSize=12;startSize=8;endSize=8;curved=1;" edge="1" parent="1" source="gkZLn7RkhI8wQoTyjbAU-36" target="gkZLn7RkhI8wQoTyjbAU-14">
          <mxGeometry width="50" height="50" relative="1" as="geometry">
            <mxPoint x="230" y="830" as="sourcePoint" />
            <mxPoint x="280" y="780" as="targetPoint" />
          </mxGeometry>
        </mxCell>
        <mxCell id="gkZLn7RkhI8wQoTyjbAU-42" value="" style="endArrow=none;html=1;rounded=0;fontSize=12;startSize=8;endSize=8;curved=1;" edge="1" parent="1" source="gkZLn7RkhI8wQoTyjbAU-31" target="gkZLn7RkhI8wQoTyjbAU-16">
          <mxGeometry width="50" height="50" relative="1" as="geometry">
            <mxPoint x="230" y="830" as="sourcePoint" />
            <mxPoint x="280" y="780" as="targetPoint" />
          </mxGeometry>
        </mxCell>
        <mxCell id="gkZLn7RkhI8wQoTyjbAU-43" value="" style="endArrow=none;html=1;rounded=0;fontSize=12;startSize=8;endSize=8;curved=1;" edge="1" parent="1" source="gkZLn7RkhI8wQoTyjbAU-30" target="gkZLn7RkhI8wQoTyjbAU-13">
          <mxGeometry width="50" height="50" relative="1" as="geometry">
            <mxPoint x="280" y="710" as="sourcePoint" />
            <mxPoint x="280" y="670" as="targetPoint" />
          </mxGeometry>
        </mxCell>
        <mxCell id="gkZLn7RkhI8wQoTyjbAU-44" value="" style="endArrow=none;html=1;rounded=0;fontSize=12;startSize=8;endSize=8;curved=1;" edge="1" parent="1" source="gkZLn7RkhI8wQoTyjbAU-29" target="gkZLn7RkhI8wQoTyjbAU-15">
          <mxGeometry width="50" height="50" relative="1" as="geometry">
            <mxPoint x="410" y="740" as="sourcePoint" />
            <mxPoint x="410" y="700" as="targetPoint" />
          </mxGeometry>
        </mxCell>
        <mxCell id="gkZLn7RkhI8wQoTyjbAU-45" value="" style="endArrow=none;html=1;rounded=0;fontSize=12;startSize=8;endSize=8;curved=1;" edge="1" parent="1" source="gkZLn7RkhI8wQoTyjbAU-28" target="gkZLn7RkhI8wQoTyjbAU-17">
          <mxGeometry width="50" height="50" relative="1" as="geometry">
            <mxPoint x="550" y="740" as="sourcePoint" />
            <mxPoint x="550" y="700" as="targetPoint" />
          </mxGeometry>
        </mxCell>
        <mxCell id="gkZLn7RkhI8wQoTyjbAU-46" value="" style="whiteSpace=wrap;html=1;aspect=fixed;" vertex="1" parent="1">
          <mxGeometry x="-100" y="1000" width="80" height="80" as="geometry" />
        </mxCell>
        <mxCell id="gkZLn7RkhI8wQoTyjbAU-49" value="" style="whiteSpace=wrap;html=1;aspect=fixed;" vertex="1" parent="1">
          <mxGeometry x="60" y="1000" width="80" height="80" as="geometry" />
        </mxCell>
        <mxCell id="gkZLn7RkhI8wQoTyjbAU-50" value="" style="whiteSpace=wrap;html=1;aspect=fixed;" vertex="1" parent="1">
          <mxGeometry x="220" y="1000" width="80" height="80" as="geometry" />
        </mxCell>
        <mxCell id="gkZLn7RkhI8wQoTyjbAU-51" value="" style="endArrow=none;html=1;rounded=0;fontSize=12;startSize=8;endSize=8;curved=1;" edge="1" parent="1" source="gkZLn7RkhI8wQoTyjbAU-35" target="gkZLn7RkhI8wQoTyjbAU-46">
          <mxGeometry width="50" height="50" relative="1" as="geometry">
            <mxPoint x="230" y="830" as="sourcePoint" />
            <mxPoint x="280" y="780" as="targetPoint" />
          </mxGeometry>
        </mxCell>
        <mxCell id="gkZLn7RkhI8wQoTyjbAU-52" value="" style="endArrow=none;html=1;rounded=0;fontSize=12;startSize=8;endSize=8;curved=1;" edge="1" parent="1" source="gkZLn7RkhI8wQoTyjbAU-34" target="gkZLn7RkhI8wQoTyjbAU-49">
          <mxGeometry width="50" height="50" relative="1" as="geometry">
            <mxPoint x="110" y="890" as="sourcePoint" />
            <mxPoint x="110" y="930" as="targetPoint" />
          </mxGeometry>
        </mxCell>
        <mxCell id="gkZLn7RkhI8wQoTyjbAU-53" value="" style="endArrow=none;html=1;rounded=0;fontSize=12;startSize=8;endSize=8;curved=1;" edge="1" parent="1" source="gkZLn7RkhI8wQoTyjbAU-36" target="gkZLn7RkhI8wQoTyjbAU-50">
          <mxGeometry width="50" height="50" relative="1" as="geometry">
            <mxPoint x="360" y="950" as="sourcePoint" />
            <mxPoint x="360" y="990" as="targetPoint" />
          </mxGeometry>
        </mxCell>
      </root>
    </mxGraphModel>
  </diagram>
</mxfile>
